<?xml version="1.0" encoding="utf-8"?>

<!-- License Agreement at http://iconmonstr.com/license/ -->

<!DOCTYPE svg PUBLIC "-//W3C//DTD SVG 1.1//EN" "http://www.w3.org/Graphics/SVG/1.1/DTD/svg11.dtd">
<svg version="1.1" xmlns="http://www.w3.org/2000/svg" xmlns:xlink="http://www.w3.org/1999/xlink" x="0px" y="0px"
	 width="512px" height="512px" viewBox="0 0 512 512" enable-background="new 0 0 512 512" xml:space="preserve">
<path id="rewind-3-icon" d="M256,90c-91.742,0-166,74.245-166,166c0,91.741,74.245,166,166,166c91.742,0,166-74.245,166-166
	C422,164.259,347.755,90,256,90z M256,50c113.771,0,206,92.229,206,206s-92.229,206-206,206S50,369.771,50,256S142.229,50,256,50z
	 M355.6,179.103v153.797L244.36,256.002L355.6,179.103z M133.12,256.002l111.24,76.897V179.103L133.12,256.002z"/>
</svg>
