<?xml version="1.0" encoding="utf-8"?>


<!-- The icon can be used freely in both personal and commercial projects with no attribution required, but always appreciated. 
You may NOT sub-license, resell, rent, redistribute or otherwise transfer the icon without express written permission from iconmonstr.com -->


<!DOCTYPE svg PUBLIC "-//W3C//DTD SVG 1.1//EN" "http://www.w3.org/Graphics/SVG/1.1/DTD/svg11.dtd">

<svg version="1.1" xmlns="http://www.w3.org/2000/svg" xmlns:xlink="http://www.w3.org/1999/xlink" x="0px" y="0px"

	 width="512px" height="512px" viewBox="0 0 512 512" enable-background="new 0 0 512 512" xml:space="preserve">

<path id="soundcloud-icon" d="M462,294.561c0,27.594-22.368,49.962-49.962,49.962h-138.97V172.824

	c5.311-1.937,10.855-3.38,16.585-4.274c4.482-0.699,9.073-1.072,13.753-1.072c46.516,0,84.649,35.879,88.243,81.472

	c6.228-2.789,13.124-4.352,20.389-4.352C439.632,244.598,462,266.967,462,294.561z M221.103,206.765v137.757h16.585V196.698

	c-3.691,4.088-7.009,8.521-9.894,13.247C225.63,208.771,223.395,207.714,221.103,206.765z M246.81,344.522h16.585V177.027

	c-5.947,3.019-11.506,6.689-16.585,10.918V344.522z M141.494,224.021v120.501h16.585V210.857

	C151.911,214.411,146.327,218.858,141.494,224.021z M91.739,249.021v95.087c2.037,0.264,4.109,0.414,6.219,0.414h8.708v-95.123

	c-2.824-0.52-5.733-0.793-8.708-0.793C95.849,248.606,93.776,248.757,91.739,249.021z M69.764,335.351

	c3.77,2.744,7.952,4.949,12.439,6.51v-90.592c-4.487,1.561-8.67,3.766-12.439,6.51V335.351z M115.787,252.048v92.475h16.585V236.096

	c-3.731,6.208-6.561,13.021-8.278,20.266C121.489,254.666,118.708,253.221,115.787,252.048z M168.03,344.522h16.585V201.919

	c-5.773,0.735-11.326,2.167-16.585,4.192V344.522z M194.566,344.522h16.585V203.478c-5.317-1.329-10.871-2.061-16.585-2.126V344.522

	z M61.609,327.83v-62.531C54.38,273.695,50,284.615,50,296.563C50,308.514,54.38,319.433,61.609,327.83z"/>

</svg>

